<?xml version="1.0" encoding="UTF-8" standalone="no"?>
<svg
   xmlns:dc="http://purl.org/dc/elements/1.1/"
   xmlns:cc="http://creativecommons.org/ns#"
   xmlns:rdf="http://www.w3.org/1999/02/22-rdf-syntax-ns#"
   xmlns:svg="http://www.w3.org/2000/svg"
   xmlns="http://www.w3.org/2000/svg"
   xmlns:sodipodi="http://sodipodi.sourceforge.net/DTD/sodipodi-0.dtd"
   xmlns:inkscape="http://www.inkscape.org/namespaces/inkscape"
   width="72mm"
   height="72mm"
   viewBox="0 0 71.999998 71.999998"
   version="1.1"
   id="svg8"
   inkscape:version="1.0.1 (0767f8302a, 2020-10-17)"
   sodipodi:docname="logo.svg">
  <defs
     id="defs2">
    <rect
       x="4.7109843"
       y="39.16709"
       width="64.350604"
       height="18.285149"
       id="rect835" />
  </defs>
  <sodipodi:namedview
     id="base"
     pagecolor="#ffffff"
     bordercolor="#666666"
     borderopacity="1.0"
     inkscape:pageopacity="0.0"
     inkscape:pageshadow="2"
     inkscape:zoom="1.979899"
     inkscape:cx="147.90379"
     inkscape:cy="149.99966"
     inkscape:document-units="mm"
     inkscape:current-layer="layer1"
     inkscape:document-rotation="0"
     showgrid="false"
     inkscape:window-width="1853"
     inkscape:window-height="1025"
     inkscape:window-x="67"
     inkscape:window-y="27"
     inkscape:window-maximized="1" />
  <metadata
     id="metadata5">
    <rdf:RDF>
      <cc:Work
         rdf:about="">
        <dc:format>image/svg+xml</dc:format>
        <dc:type
           rdf:resource="http://purl.org/dc/dcmitype/StillImage" />
        <dc:title />
      </cc:Work>
    </rdf:RDF>
  </metadata>
  <g
     inkscape:label="Layer 1"
     inkscape:groupmode="layer"
     id="layer1">
    <g
       aria-label="webnote"
       transform="matrix(1.2225001,0,0,1.2225001,-9.0011629,3.7883082)"
       id="text833"
       style="font-style:normal;font-weight:normal;font-size:14.1111px;line-height:1.25;font-family:sans-serif;text-align:center;white-space:pre;shape-inside:url(#rect835);fill:#008080;fill-opacity:1;stroke:none">
      <path
         d="m 10.514726,52.400671 c 0.04233,0.01411 0.08467,0.02822 0.127,0.02822 0.112889,0 0.254,-0.08467 0.296333,-0.211666 0,-0.01411 0.01411,-0.02822 0.01411,-0.02822 l 1.594555,-3.809997 1.608665,3.824108 0.01411,0.01411 c 0.02822,0.112889 0.155222,0.197555 0.268111,0.211666 h 0.04233 0.02822 c 0.05645,0 0.112889,-0.02822 0.169334,-0.07055 0.05644,-0.04233 0.09878,-0.09878 0.127,-0.169333 l 2.582331,-6.15244 c 0.07056,-0.169333 -0.01411,-0.366889 -0.183444,-0.437444 -0.155222,-0.07056 -0.366889,0.01411 -0.437444,0.183444 l -2.285999,5.446885 -1.594554,-3.795886 c -0.05644,-0.127 -0.197555,-0.211667 -0.338666,-0.211667 -0.127,0 -0.268111,0.08467 -0.324556,0.211667 L 10.627615,51.22945 8.3275056,45.782565 c -0.056444,-0.169333 -0.2681109,-0.254 -0.4374441,-0.183444 -0.1552221,0.07056 -0.2398887,0.268111 -0.1693332,0.437444 l 2.5964427,6.180662 c 0.02822,0.07055 0.07056,0.127 0.141111,0.155222 0.01411,0.01411 0.02822,0.02822 0.05644,0.02822 z"
         style="font-style:normal;font-variant:normal;font-weight:normal;font-stretch:normal;font-size:14.1111px;font-family:Quicksand;-inkscape-font-specification:Quicksand;fill:#008080"
         id="path1617" />
      <path
         d="m 22.308519,52.428893 c 1.171222,0 2.201332,-0.620888 2.793998,-1.566332 0.09878,-0.169333 0.04233,-0.366888 -0.112889,-0.479777 -0.141111,-0.08467 -0.352777,-0.05645 -0.451555,0.112889 -0.465666,0.77611 -1.312332,1.255888 -2.229554,1.255888 -1.425221,0 -2.610553,-1.143 -2.681109,-2.652887 h 5.672663 c 0.183444,0 0.338666,-0.127 0.338666,-0.310445 v -0.04233 -0.01411 c -0.141111,-1.806221 -1.552221,-3.217331 -3.33022,-3.217331 -1.862665,0 -3.358441,1.552221 -3.358441,3.471331 0,1.890887 1.495776,3.443108 3.358441,3.443108 z m 0,-6.237106 c 1.269999,0 2.370665,0.945444 2.596443,2.243665 h -5.235218 c 0.254,-1.312332 1.340554,-2.243665 2.638775,-2.243665 z"
         style="font-style:normal;font-variant:normal;font-weight:normal;font-stretch:normal;font-size:14.1111px;font-family:Quicksand;-inkscape-font-specification:Quicksand;fill:#008080"
         id="path1619" />
      <path
         d="m 28.042918,52.090227 c 0,0.183444 0.155223,0.338666 0.338667,0.338666 0.197555,0 0.352777,-0.155222 0.352777,-0.338666 v -1.001888 c 0.606778,0.818444 1.566332,1.340554 2.652887,1.340554 1.862665,0 3.344331,-1.552221 3.344331,-3.443108 0,-1.91911 -1.481666,-3.471331 -3.344331,-3.471331 -1.086555,0 -2.046109,0.536222 -2.652887,1.354666 v -3.97933 c 0,-0.183445 -0.155222,-0.338667 -0.352777,-0.338667 -0.183444,0 -0.338667,0.155222 -0.338667,0.338667 v 5.954884 0.141111 0.141111 z m 0.691444,-3.217331 c 0.05645,-1.481665 1.227666,-2.666998 2.652887,-2.666998 1.467555,0 2.652887,1.241777 2.652887,2.779887 0,1.523999 -1.185332,2.751664 -2.652887,2.751664 -1.453443,0 -2.652887,-1.227665 -2.652887,-2.751664 z"
         style="font-style:normal;font-variant:normal;font-weight:normal;font-stretch:normal;font-size:14.1111px;font-family:Quicksand;-inkscape-font-specification:Quicksand;fill:#008080"
         id="path1621" />
      <path
         d="m 42.297332,52.090227 c 0,0.197555 0.155222,0.338666 0.338667,0.338666 0.183444,0 0.338666,-0.141111 0.338666,-0.338666 v -3.753553 c 0,-1.53811 -1.255888,-2.808109 -2.808109,-2.808109 -0.860777,0 -1.636887,0.395111 -2.144887,1.001888 v -0.663221 c 0,-0.183445 -0.141111,-0.338667 -0.324555,-0.338667 -0.197556,0 -0.338667,0.155222 -0.338667,0.338667 v 2.356553 0.112889 3.753553 0.08467 c 0,0 0.01411,0.01411 0.01411,0.02822 0,0.01411 0,0.02822 0.01411,0.04233 0.04233,0.08467 0.127,0.155222 0.225778,0.183444 h 0.08467 c 0.09878,0 0.197555,-0.04233 0.253999,-0.127 0.04233,-0.04233 0.05645,-0.09878 0.07056,-0.155222 v -0.05644 -3.753553 c 0.02822,-1.171221 0.973666,-2.130776 2.144887,-2.130776 1.185333,0 2.130776,0.959555 2.130776,2.130776 z"
         style="font-style:normal;font-variant:normal;font-weight:normal;font-stretch:normal;font-size:14.1111px;font-family:Quicksand;-inkscape-font-specification:Quicksand;text-align:center;text-anchor:middle;fill:#008080"
         id="path1623" />
      <path
         d="m 45.687968,48.971674 c 0,1.876776 1.467554,3.457219 3.273775,3.457219 1.820332,0 3.273775,-1.580443 3.273775,-3.457219 0,-1.876777 -1.453443,-3.45722 -3.273775,-3.45722 -1.806221,0 -3.273775,1.580443 -3.273775,3.45722 z m 0.677332,0 c 0,-1.53811 1.185333,-2.793998 2.596443,-2.793998 1.41111,0 2.596442,1.255888 2.596442,2.793998 0,1.53811 -1.185332,2.779887 -2.596442,2.779887 -1.41111,0 -2.596443,-1.241777 -2.596443,-2.779887 z"
         style="font-style:normal;font-variant:normal;font-weight:normal;font-stretch:normal;font-size:14.1111px;font-family:Quicksand;-inkscape-font-specification:Quicksand;text-align:center;text-anchor:middle;fill:#008080"
         id="path1625" />
      <path
         d="m 56.630682,45.514454 h -0.889 v -2.56822 c 0,-0.169333 -0.183444,-0.338666 -0.366888,-0.338666 -0.169333,0 -0.338667,0.169333 -0.338667,0.338666 v 2.56822 H 54.17535 c -0.338666,0 -0.338666,0.169333 -0.338666,0.338667 0,0.169333 0,0.338666 0.338666,0.338666 h 0.860777 v 5.037663 c 0,0.691444 0.522111,1.199443 1.213555,1.199443 0.169333,0 0.352777,-0.169333 0.352777,-0.338666 0,-0.169333 -0.183444,-0.352778 -0.352777,-0.352778 -0.169333,0 -0.508,-0.169333 -0.508,-0.507999 v -5.037663 h 0.889 c 0.169333,0 0.338666,-0.169333 0.338666,-0.338666 0,-0.169334 -0.169333,-0.338667 -0.338666,-0.338667 z"
         style="font-style:normal;font-variant:normal;font-weight:normal;font-stretch:normal;font-size:14.1111px;font-family:Quicksand;-inkscape-font-specification:Quicksand;text-align:center;text-anchor:middle;fill:#008080"
         id="path1627" />
      <path
         d="m 62.519643,52.428893 c 1.171221,0 2.201332,-0.620888 2.793998,-1.566332 0.09878,-0.169333 0.04233,-0.366888 -0.112889,-0.479777 -0.141111,-0.08467 -0.352778,-0.05645 -0.451555,0.112889 -0.465667,0.77611 -1.312333,1.255888 -2.229554,1.255888 -1.425221,0 -2.610554,-1.143 -2.681109,-2.652887 h 5.672662 c 0.183444,0 0.338667,-0.127 0.338667,-0.310445 v -0.04233 -0.01411 c -0.141111,-1.806221 -1.552221,-3.217331 -3.33022,-3.217331 -1.862665,0 -3.358442,1.552221 -3.358442,3.471331 0,1.890887 1.495777,3.443108 3.358442,3.443108 z m 0,-6.237106 c 1.269999,0 2.370665,0.945444 2.596442,2.243665 h -5.235218 c 0.254,-1.312332 1.340555,-2.243665 2.638776,-2.243665 z"
         style="font-style:normal;font-variant:normal;font-weight:normal;font-stretch:normal;font-size:14.1111px;font-family:Quicksand;-inkscape-font-specification:Quicksand;text-align:center;text-anchor:middle;fill:#008080"
         id="path1629" />
    </g>
    <g
       id="g933"
       transform="matrix(0.08069976,0,0,0.08069976,15.294336,6.4300314)"
       style="fill:#008080;fill-opacity:1">
      <g
         id="g931"
         style="fill:#008080;fill-opacity:1">
        <g
           id="g929"
           style="fill:#008080;fill-opacity:1">
          <path
             d="m 352.459,220 c 0,-11.046 -8.954,-20 -20,-20 h -206 c -11.046,0 -20,8.954 -20,20 0,11.046 8.954,20 20,20 h 206 c 11.046,0 20,-8.954 20,-20 z"
             id="path919"
             style="fill:#008080;fill-opacity:1" />
          <path
             d="m 126.459,280 c -11.046,0 -20,8.954 -20,20 0,11.046 8.954,20 20,20 H 251.57 c 11.046,0 20,-8.954 20,-20 0,-11.046 -8.954,-20 -20,-20 z"
             id="path921"
             style="fill:#008080;fill-opacity:1" />
          <path
             d="M 173.459,472 H 106.57 c -22.056,0 -40,-17.944 -40,-40 V 80 c 0,-22.056 17.944,-40 40,-40 h 245.889 c 22.056,0 40,17.944 40,40 v 123 c 0,11.046 8.954,20 20,20 11.046,0 20,-8.954 20,-20 V 80 c 0,-44.112 -35.888,-80 -80,-80 H 106.57 c -44.112,0 -80,35.888 -80,80 v 352 c 0,44.112 35.888,80 80,80 h 66.889 c 11.046,0 20,-8.954 20,-20 0,-11.046 -8.954,-20 -20,-20 z"
             id="path923"
             style="fill:#008080;fill-opacity:1" />
          <path
             d="m 467.884,289.572 c -23.394,-23.394 -61.458,-23.395 -84.837,-0.016 l -109.803,109.56 c -2.332,2.327 -4.052,5.193 -5.01,8.345 l -23.913,78.725 c -2.12,6.98 -0.273,14.559 4.821,19.78 3.816,3.911 9,6.034 14.317,6.034 1.779,0 3.575,-0.238 5.338,-0.727 l 80.725,-22.361 c 3.322,-0.92 6.35,-2.683 8.79,-5.119 L 467.885,374.426 c 23.394,-23.394 23.394,-61.458 -10e-4,-84.854 z m -134.108,162.196 -40.612,11.25 11.885,-39.129 74.089,-73.925 28.29,28.29 z m 105.839,-105.638 -3.875,3.867 -28.285,-28.285 3.862,-3.854 c 7.798,-7.798 20.486,-7.798 28.284,0 7.798,7.798 7.798,20.486 0.014,28.272 z"
             id="path925"
             style="fill:#008080;fill-opacity:1" />
          <path
             d="m 332.459,120 h -206 c -11.046,0 -20,8.954 -20,20 0,11.046 8.954,20 20,20 h 206 c 11.046,0 20,-8.954 20,-20 0,-11.046 -8.954,-20 -20,-20 z"
             id="path927"
             style="fill:#008080;fill-opacity:1" />
        </g>
      </g>
    </g>
  </g>
</svg>
